{
  "accessors": [
    {
      "bufferView": 2,
      "componentType": 5126,
      "count": 7841,
      "max": [
        33,
        11.738743782043457,
        33.007946014404297
      ],
      "min": [
        -11.742818832397461,
        -33.015892028808594,
        -11.738746643066406
      ],
      "type": "VEC3"
    },
    {
      "bufferView": 2,
      "byteOffset": 94092,
      "componentType": 5126,
      "count": 7841,
      "max": [
        1,
        0.99939489364624023,
        1
      ],
      "min": [
        -0.99939501285552979,
        -1,
        -0.99939411878585815
      ],
      "type": "VEC3"
    },
    {
      "bufferView": 3,
      "componentType": 5126,
      "count": 7841,
      "max": [
        0,
        0,
        0,
        1
      ],
      "min": [
        0,
        0,
        0,
        1
      ],
      "type": "VEC4"
    },
    {
      "bufferView": 3,
      "byteOffset": 125456,
      "componentType": 5126,
      "count": 7841,
      "max": [
        1,
        1,
        1,
        1
      ],
      "min": [
        1,
        1,
        1,
        1
      ],
      "type": "VEC4"
    },
    {
      "bufferView": 1,
      "componentType": 5126,
      "count": 7841,
      "max": [
        0,
        0
      ],
      "min": [
        0,
        0
      ],
      "type": "VEC2"
    },
    {
      "bufferView": 0,
      "componentType": 5125,
      "count": 22746,
      "max": [
        7840
      ],
      "min": [
        0
      ],
      "type": "SCALAR"
    },
    {
      "bufferView": 2,
      "byteOffset": 188184,
      "componentType": 5126,
      "count": 7841,
      "max": [
        11.738746643066406,
        33,
        33.007946014404297
      ],
      "min": [
        -33.007946014404297,
        -11.742820739746094,
        -11.738746643066406
      ],
      "type": "VEC3"
    },
    {
      "bufferView": 2,
      "byteOffset": 282276,
      "componentType": 5126,
      "count": 7841,
      "max": [
        0.99939173460006714,
        1,
        1
      ],
      "min": [
        -1,
        -0.99939262866973877,
        -0.99939262866973877
      ],
      "type": "VEC3"
    },
    {
      "bufferView": 3,
      "byteOffset": 250912,
      "componentType": 5126,
      "count": 7841,
      "max": [
        0,
        0,
        0,
        1
      ],
      "min": [
        0,
        0,
        0,
        1
      ],
      "type": "VEC4"
    },
    {
      "bufferView": 3,
      "byteOffset": 376368,
      "componentType": 5126,
      "count": 7841,
      "max": [
        1,
        1,
        1,
        1
      ],
      "min": [
        1,
        1,
        1,
        1
      ],
      "type": "VEC4"
    },
    {
      "bufferView": 1,
      "byteOffset": 62728,
      "componentType": 5126,
      "count": 7841,
      "max": [
        0,
        0
      ],
      "min": [
        0,
        0
      ],
      "type": "VEC2"
    },
    {
      "bufferView": 0,
      "byteOffset": 90984,
      "componentType": 5125,
      "count": 22746,
      "max": [
        7840
      ],
      "min": [
        0
      ],
      "type": "SCALAR"
    },
    {
      "bufferView": 2,
      "byteOffset": 376368,
      "componentType": 5126,
      "count": 7841,
      "max": [
        33.007946014404297,
        33.015892028808594,
        11.742818832397461
      ],
      "min": [
        -11.738746643066406,
        -11.738743782043457,
        -33
      ],
      "type": "VEC3"
    },
    {
      "bufferView": 2,
      "byteOffset": 470460,
      "componentType": 5126,
      "count": 7841,
      "max": [
        1,
        1,
        0.9993903636932373
      ],
      "min": [
        -0.99939024448394775,
        -0.99938935041427612,
        -1
      ],
      "type": "VEC3"
    },
    {
      "bufferView": 3,
      "byteOffset": 501824,
      "componentType": 5126,
      "count": 7841,
      "max": [
        0,
        0,
        0,
        1
      ],
      "min": [
        0,
        0,
        0,
        1
      ],
      "type": "VEC4"
    },
    {
      "bufferView": 3,
      "byteOffset": 627280,
      "componentType": 5126,
      "count": 7841,
      "max": [
        1,
        1,
        1,
        1
      ],
      "min": [
        1,
        1,
        1,
        1
      ],
      "type": "VEC4"
    },
    {
      "bufferView": 1,
      "byteOffset": 125456,
      "componentType": 5126,
      "count": 7841,
      "max": [
        0,
        0
      ],
      "min": [
        0,
        0
      ],
      "type": "VEC2"
    },
    {
      "bufferView": 0,
      "byteOffset": 181968,
      "componentType": 5125,
      "count": 22746,
      "max": [
        7840
      ],
      "min": [
        0
      ],
      "type": "SCALAR"
    },
    {
      "bufferView": 2,
      "byteOffset": 564552,
      "componentType": 5126,
      "count": 4813,
      "max": [
        32.99993896484375,
        33.008327484130859,
        33.004734039306641
      ],
      "min": [
        5.9938020706176758,
        5.997340202331543,
        5.9949660301208496
      ],
      "type": "VEC3"
    },
    {
      "bufferView": 2,
      "byteOffset": 622308,
      "componentType": 5126,
      "count": 4813,
      "max": [
        1,
        1,
        1
      ],
      "min": [
        -0.9995606541633606,
        -0.99956101179122925,
        -0.9995608925819397
      ],
      "type": "VEC3"
    },
    {
      "bufferView": 3,
      "byteOffset": 752736,
      "componentType": 5126,
      "count": 4813,
      "max": [
        0,
        0,
        0,
        1
      ],
      "min": [
        0,
        0,
        0,
        1
      ],
      "type": "VEC4"
    },
    {
      "bufferView": 3,
      "byteOffset": 829744,
      "componentType": 5126,
      "count": 4813,
      "max": [
        1,
        1,
        1,
        1
      ],
      "min": [
        1,
        1,
        1,
        1
      ],
      "type": "VEC4"
    },
    {
      "bufferView": 1,
      "byteOffset": 188184,
      "componentType": 5126,
      "count": 4813,
      "max": [
        0,
        0
      ],
      "min": [
        0,
        0
      ],
      "type": "VEC2"
    },
    {
      "bufferView": 0,
      "byteOffset": 272952,
      "componentType": 5125,
      "count": 13914,
      "max": [
        4812
      ],
      "min": [
        0
      ],
      "type": "SCALAR"
    },
    {
      "bufferView": 2,
      "byteOffset": 680064,
      "componentType": 5126,
      "count": 4813,
      "max": [
        -5.9961991310119629,
        32.99993896484375,
        -5.9961991310119629
      ],
      "min": [
        -33.004737854003906,
        5.9950351715087891,
        -33.004737854003906
      ],
      "type": "VEC3"
    },
    {
      "bufferView": 2,
      "byteOffset": 737820,
      "componentType": 5126,
      "count": 4813,
      "max": [
        0.99956148862838745,
        1,
        0.999561607837677
      ],
      "min": [
        -1,
        -0.99956125020980835,
        -1
      ],
      "type": "VEC3"
    },
    {
      "bufferView": 3,
      "byteOffset": 906752,
      "componentType": 5126,
      "count": 4813,
      "max": [
        0,
        0,
        0,
        1
      ],
      "min": [
        0,
        0,
        0,
        1
      ],
      "type": "VEC4"
    },
    {
      "bufferView": 3,
      "byteOffset": 983760,
      "componentType": 5126,
      "count": 4813,
      "max": [
        1,
        1,
        1,
        1
      ],
      "min": [
        1,
        1,
        1,
        1
      ],
      "type": "VEC4"
    },
    {
      "bufferView": 1,
      "byteOffset": 226688,
      "componentType": 5126,
      "count": 4813,
      "max": [
        0,
        0
      ],
      "min": [
        0,
        0
      ],
      "type": "VEC2"
    },
    {
      "bufferView": 0,
      "byteOffset": 328608,
      "componentType": 5125,
      "count": 13914,
      "max": [
        4812
      ],
      "min": [
        0
      ],
      "type": "SCALAR"
    },
    {
      "bufferView": 2,
      "byteOffset": 795576,
      "componentType": 5126,
      "count": 4737,
      "max": [
        -5.9424471855163574,
        -5.9412741661071777,
        33.171844482421875
      ],
      "min": [
        -33.168010711669922,
        -33.164268493652344,
        5.9448390007019043
      ],
      "type": "VEC3"
    },
    {
      "bufferView": 2,
      "byteOffset": 852420,
      "componentType": 5126,
      "count": 4737,
      "max": [
        0.99950474500656128,
        0.99950474500656128,
        0.99993544816970825
      ],
      "min": [
        -0.9999382495880127,
        -0.99993675947189331,
        -0.99950474500656128
      ],
      "type": "VEC3"
    },
    {
      "bufferView": 3,
      "byteOffset": 1060768,
      "componentType": 5126,
      "count": 4737,
      "max": [
        0,
        0,
        0,
        1
      ],
      "min": [
        0,
        0,
        0,
        1
      ],
      "type": "VEC4"
    },
    {
      "bufferView": 3,
      "byteOffset": 1136560,
      "componentType": 5126,
      "count": 4737,
      "max": [
        1,
        1,
        1,
        1
      ],
      "min": [
        1,
        1,
        1,
        1
      ],
      "type": "VEC4"
    },
    {
      "bufferView": 1,
      "byteOffset": 265192,
      "componentType": 5126,
      "count": 4737,
      "max": [
        0,
        0
      ],
      "min": [
        0,
        0
      ],
      "type": "VEC2"
    },
    {
      "bufferView": 0,
      "byteOffset": 384264,
      "componentType": 5125,
      "count": 13686,
      "max": [
        4736
      ],
      "min": [
        0
      ],
      "type": "SCALAR"
    },
    {
      "bufferView": 2,
      "byteOffset": 909264,
      "componentType": 5126,
      "count": 7841,
      "max": [
        11.73798656463623,
        11.742027282714844,
        11.737919807434082
      ],
      "min": [
        -33.187950134277344,
        -33.180038452148438,
        -33.195980072021484
      ],
      "type": "VEC3"
    },
    {
      "bufferView": 2,
      "byteOffset": 1003356,
      "componentType": 5126,
      "count": 7841,
      "max": [
        0.99943000078201294,
        0.99943065643310547,
        0.99943065643310547
      ],
      "min": [
        -0.99998301267623901,
        -0.99998223781585693,
        -0.99998152256011963
      ],
      "type": "VEC3"
    },
    {
      "bufferView": 3,
      "byteOffset": 1212352,
      "componentType": 5126,
      "count": 7841,
      "max": [
        0,
        0,
        0,
        1
      ],
      "min": [
        0,
        0,
        0,
        1
      ],
      "type": "VEC4"
    },
    {
      "bufferView": 3,
      "byteOffset": 1337808,
      "componentType": 5126,
      "count": 7841,
      "max": [
        1,
        1,
        1,
        1
      ],
      "min": [
        1,
        1,
        1,
        1
      ],
      "type": "VEC4"
    },
    {
      "bufferView": 1,
      "byteOffset": 303088,
      "componentType": 5126,
      "count": 7841,
      "max": [
        0,
        0
      ],
      "min": [
        0,
        0
      ],
      "type": "VEC2"
    },
    {
      "bufferView": 0,
      "byteOffset": 439008,
      "componentType": 5125,
      "count": 22746,
      "max": [
        7840
      ],
      "min": [
        0
      ],
      "type": "SCALAR"
    },
    {
      "bufferView": 2,
      "byteOffset": 1097448,
      "componentType": 5126,
      "count": 4765,
      "max": [
        33.126392364501953,
        -5.9567270278930664,
        -5.9555559158325195
      ],
      "min": [
        5.9591150283813477,
        -33.122577667236328,
        -33.118824005126953
      ],
      "type": "VEC3"
    },
    {
      "bufferView": 2,
      "byteOffset": 1154628,
      "componentType": 5126,
      "count": 4765,
      "max": [
        0.99996548891067505,
        0.99951714277267456,
        0.99951565265655518
      ],
      "min": [
        -0.99951785802841187,
        -0.99996745586395264,
        -0.99996650218963623
      ],
      "type": "VEC3"
    },
    {
      "bufferView": 3,
      "byteOffset": 1463264,
      "componentType": 5126,
      "count": 4765,
      "max": [
        0,
        0,
        0,
        1
      ],
      "min": [
        0,
        0,
        0,
        1
      ],
      "type": "VEC4"
    },
    {
      "bufferView": 3,
      "byteOffset": 1539504,
      "componentType": 5126,
      "count": 4765,
      "max": [
        1,
        1,
        1,
        1
      ],
      "min": [
        1,
        1,
        1,
        1
      ],
      "type": "VEC4"
    },
    {
      "bufferView": 1,
      "byteOffset": 365816,
      "componentType": 5126,
      "count": 4765,
      "max": [
        0,
        0
      ],
      "min": [
        0,
        0
      ],
      "type": "VEC2"
    },
    {
      "bufferView": 0,
      "byteOffset": 529992,
      "componentType": 5125,
      "count": 13770,
      "max": [
        4764
      ],
      "min": [
        0
      ],
      "type": "SCALAR"
    },
    {
      "bufferView": 2,
      "byteOffset": 1211808,
      "componentType": 5126,
      "count": 2646,
      "max": [
        28.422229766845703,
        28.422229766845703,
        28.422229766845703
      ],
      "min": [
        -28.422229766845703,
        -28.422229766845703,
        -28.422229766845703
      ],
      "type": "VEC3"
    },
    {
      "bufferView": 2,
      "byteOffset": 1243560,
      "componentType": 5126,
      "count": 2646,
      "max": [
        1,
        0.99647200107574463,
        0.99427789449691772
      ],
      "min": [
        -1,
        -0.99647200107574463,
        -0.99720388650894165
      ],
      "type": "VEC3"
    },
    {
      "bufferView": 3,
      "byteOffset": 1615744,
      "componentType": 5126,
      "count": 2646,
      "max": [
        0,
        0,
        0,
        1
      ],
      "min": [
        0,
        0,
        0,
        1
      ],
      "type": "VEC4"
    },
    {
      "bufferView": 3,
      "byteOffset": 1658080,
      "componentType": 5126,
      "count": 2646,
      "max": [
        1,
        1,
        1,
        1
      ],
      "min": [
        1,
        1,
        1,
        1
      ],
      "type": "VEC4"
    },
    {
      "bufferView": 1,
      "byteOffset": 403936,
      "componentType": 5126,
      "count": 2646,
      "max": [
        0,
        0
      ],
      "min": [
        0,
        0
      ],
      "type": "VEC2"
    },
    {
      "bufferView": 0,
      "byteOffset": 585072,
      "componentType": 5125,
      "count": 13032,
      "max": [
        2645
      ],
      "min": [
        0
      ],
      "type": "SCALAR"
    }
  ],
  "asset": {
    "extras": {
      "author": "Vitor.GomesPT (https://sketchfab.com/Vitor.Gomes1)",
      "license": "CC-BY-4.0 (http://creativecommons.org/licenses/by/4.0/)",
      "source": "https://sketchfab.com/3d-models/bevel-gear-cube-19658da4295d4789a7795884aa8a1391",
      "title": "Bevel Gear Cube"
    },
    "generator": "Sketchfab-5.22.0",
    "version": "2.0"
  },
  "bufferViews": [
    {
      "buffer": 0,
      "byteLength": 637200,
      "byteOffset": 0,
      "name": "floatBufferViews",
      "target": 34963
    },
    {
      "buffer": 0,
      "byteLength": 425104,
      "byteOffset": 637200,
      "byteStride": 8,
      "name": "floatBufferViews",
      "target": 34962
    },
    {
      "buffer": 0,
      "byteLength": 1275312,
      "byteOffset": 1062304,
      "byteStride": 12,
      "name": "floatBufferViews",
      "target": 34962
    },
    {
      "buffer": 0,
      "byteLength": 1700416,
      "byteOffset": 2337616,
      "byteStride": 16,
      "name": "floatBufferViews",
      "target": 34962
    }
  ],
  "buffers": [
    {
      "byteLength": 4038032,
      "uri": "scene.bin"
    }
  ],
  "materials": [
    {
      "doubleSided": true,
      "emissiveFactor": [
        0,
        0,
        0
      ],
      "name": "material_0",
      "pbrMetallicRoughness": {
        "baseColorFactor": [
          0.0025489530948581613,
          0.011681272188830078,
          0.14473191815158098,
          1
        ],
        "metallicFactor": 0,
        "roughnessFactor": 0.59999999999999998
      }
    },
    {
      "doubleSided": true,
      "emissiveFactor": [
        0,
        0,
        0
      ],
      "name": "material_1",
      "pbrMetallicRoughness": {
        "baseColorFactor": [
          0.792157,
          0.819608,
          0.93333299999999997,
          1
        ],
        "metallicFactor": 0,
        "roughnessFactor": 0.59999999999999998
      }
    },
    {
      "doubleSided": true,
      "emissiveFactor": [
        0,
        0,
        0
      ],
      "name": "material_2",
      "pbrMetallicRoughness": {
        "baseColorFactor": [
          0,
          0,
          0,
          1
        ],
        "metallicFactor": 0,
        "roughnessFactor": 0.59999999999999998
      }
    },
    {
      "doubleSided": true,
      "emissiveFactor": [
        0,
        0,
        0
      ],
      "name": "material_3",
      "pbrMetallicRoughness": {
        "baseColorFactor": [
          0.792157,
          0.819608,
          0.93333299999999997,
          1
        ],
        "metallicFactor": 0,
        "roughnessFactor": 0.59999999999999998
      }
    },
    {
      "doubleSided": true,
      "emissiveFactor": [
        0,
        0,
        0
      ],
      "name": "material_4",
      "pbrMetallicRoughness": {
        "baseColorFactor": [
          0.792157,
          0.819608,
          0.93333299999999997,
          1
        ],
        "metallicFactor": 0,
        "roughnessFactor": 0.59999999999999998
      }
    },
    {
      "doubleSided": true,
      "emissiveFactor": [
        0,
        0,
        0
      ],
      "name": "material_5",
      "pbrMetallicRoughness": {
        "baseColorFactor": [
          0.92419381609999995,
          0.792157,
          0.93333299999999997,
          1
        ],
        "metallicFactor": 0,
        "roughnessFactor": 0.59999999999999998
      }
    },
    {
      "doubleSided": true,
      "emissiveFactor": [
        0,
        0,
        0
      ],
      "name": "material_6",
      "pbrMetallicRoughness": {
        "baseColorFactor": [
          0,
          0,
          0,
          1
        ],
        "metallicFactor": 0,
        "roughnessFactor": 0.59999999999999998
      }
    },
    {
      "doubleSided": true,
      "emissiveFactor": [
        0,
        0,
        0
      ],
      "name": "material_7",
      "pbrMetallicRoughness": {
        "baseColorFactor": [
          0,
          0,
          0,
          1
        ],
        "metallicFactor": 0.41634908539999999,
        "roughnessFactor": 0.59999999999999998
      }
    },
    {
      "doubleSided": true,
      "emissiveFactor": [
        0,
        0,
        0
      ],
      "name": "material_8",
      "pbrMetallicRoughness": {
        "baseColorFactor": [
          0,
          0,
          0,
          1
        ],
        "metallicFactor": 0,
        "roughnessFactor": 0.59999999999999998
      }
    }
  ],
  "meshes": [
    {
      "primitives": [
        {
          "attributes": {
            "COLOR_0": 3,
            "NORMAL": 1,
            "POSITION": 0,
            "TANGENT": 2,
            "TEXCOORD_0": 4
          },
          "indices": 5,
          "material": 8,
          "mode": 4
        }
      ]
    },
    {
      "primitives": [
        {
          "attributes": {
            "COLOR_0": 9,
            "NORMAL": 7,
            "POSITION": 6,
            "TANGENT": 8,
            "TEXCOORD_0": 10
          },
          "indices": 11,
          "material": 7,
          "mode": 4
        }
      ]
    },
    {
      "primitives": [
        {
          "attributes": {
            "COLOR_0": 15,
            "NORMAL": 13,
            "POSITION": 12,
            "TANGENT": 14,
            "TEXCOORD_0": 16
          },
          "indices": 17,
          "material": 6,
          "mode": 4
        }
      ]
    },
    {
      "primitives": [
        {
          "attributes": {
            "COLOR_0": 21,
            "NORMAL": 19,
            "POSITION": 18,
            "TANGENT": 20,
            "TEXCOORD_0": 22
          },
          "indices": 23,
          "material": 5,
          "mode": 4
        }
      ]
    },
    {
      "primitives": [
        {
          "attributes": {
            "COLOR_0": 27,
            "NORMAL": 25,
            "POSITION": 24,
            "TANGENT": 26,
            "TEXCOORD_0": 28
          },
          "indices": 29,
          "material": 4,
          "mode": 4
        }
      ]
    },
    {
      "primitives": [
        {
          "attributes": {
            "COLOR_0": 33,
            "NORMAL": 31,
            "POSITION": 30,
            "TANGENT": 32,
            "TEXCOORD_0": 34
          },
          "indices": 35,
          "material": 3,
          "mode": 4
        }
      ]
    },
    {
      "primitives": [
        {
          "attributes": {
            "COLOR_0": 39,
            "NORMAL": 37,
            "POSITION": 36,
            "TANGENT": 38,
            "TEXCOORD_0": 40
          },
          "indices": 41,
          "material": 2,
          "mode": 4
        }
      ]
    },
    {
      "primitives": [
        {
          "attributes": {
            "COLOR_0": 45,
            "NORMAL": 43,
            "POSITION": 42,
            "TANGENT": 44,
            "TEXCOORD_0": 46
          },
          "indices": 47,
          "material": 1,
          "mode": 4
        }
      ]
    },
    {
      "primitives": [
        {
          "attributes": {
            "COLOR_0": 51,
            "NORMAL": 49,
            "POSITION": 48,
            "TANGENT": 50,
            "TEXCOORD_0": 52
          },
          "indices": 53,
          "material": 0,
          "mode": 4
        }
      ]
    }
  ],
  "nodes": [
    {
      "children": [
        1
      ],
      "name": "RootNode (gltf orientation matrix)",
      "rotation": [
        -0.70710678118654746,
        -0,
        -0,
        0.70710678118654757
      ]
    },
    {
      "children": [
        2
      ],
      "name": "RootNode (model correction matrix)"
    },
    {
      "children": [
        3,
        4,
        5,
        6,
        7,
        8,
        9,
        10,
        11
      ],
      "matrix": [
        1,
        0,
        0,
        0,
        0,
        0,
        1,
        0,
        0,
        -1,
        0,
        0,
        0,
        0,
        0,
        1
      ],
      "name": "currentmodel.wrl.cleaner.materialmerger.gles"
    },
    {
      "mesh": 0,
      "name": ""
    },
    {
      "mesh": 1,
      "name": ""
    },
    {
      "mesh": 2,
      "name": ""
    },
    {
      "mesh": 3,
      "name": ""
    },
    {
      "mesh": 4,
      "name": ""
    },
    {
      "mesh": 5,
      "name": ""
    },
    {
      "mesh": 6,
      "name": ""
    },
    {
      "mesh": 7,
      "name": ""
    },
    {
      "mesh": 8,
      "name": ""
    }
  ],
  "scene": 0,
  "scenes": [
    {
      "name": "OSG_Scene",
      "nodes": [
        0
      ]
    }
  ]
}

