{
  "accessors": [
    {
      "bufferView": 2,
      "componentType": 5126,
      "count": 24,
      "max": [
        10,
        10,
        20
      ],
      "min": [
        -10,
        -10,
        0
      ],
      "type": "VEC3"
    },
    {
      "bufferView": 2,
      "byteOffset": 288,
      "componentType": 5126,
      "count": 24,
      "max": [
        1,
        1,
        1
      ],
      "min": [
        -1,
        -1,
        -1
      ],
      "type": "VEC3"
    },
    {
      "bufferView": 3,
      "componentType": 5126,
      "count": 24,
      "max": [
        1,
        1,
        0,
        1
      ],
      "min": [
        -1,
        -1,
        0,
        1
      ],
      "type": "VEC4"
    },
    {
      "bufferView": 1,
      "componentType": 5126,
      "count": 24,
      "max": [
        1,
        1
      ],
      "min": [
        0,
        0
      ],
      "type": "VEC2"
    },
    {
      "bufferView": 0,
      "componentType": 5125,
      "count": 36,
      "max": [
        23
      ],
      "min": [
        0
      ],
      "type": "SCALAR"
    },
    {
      "bufferView": 2,
      "byteOffset": 576,
      "componentType": 5126,
      "count": 4,
      "max": [
        14.666669845581055,
        14.666671752929688,
        -2
      ],
      "min": [
        -14.666669845581055,
        -14.666671752929688,
        -2
      ],
      "type": "VEC3"
    },
    {
      "bufferView": 2,
      "byteOffset": 624,
      "componentType": 5126,
      "count": 4,
      "max": [
        0,
        0,
        -1
      ],
      "min": [
        0,
        0,
        -1
      ],
      "type": "VEC3"
    },
    {
      "bufferView": 3,
      "byteOffset": 384,
      "componentType": 5126,
      "count": 4,
      "max": [
        -1,
        0,
        0,
        1
      ],
      "min": [
        -1,
        -6.191791003529179e-12,
        0,
        1
      ],
      "type": "VEC4"
    },
    {
      "bufferView": 1,
      "byteOffset": 192,
      "componentType": 5126,
      "count": 4,
      "max": [
        0.99949997663497925,
        0.99950003623962402
      ],
      "min": [
        0.00050000002374872565,
        0.00050000002374872565
      ],
      "type": "VEC2"
    },
    {
      "bufferView": 0,
      "byteOffset": 144,
      "componentType": 5125,
      "count": 6,
      "max": [
        3
      ],
      "min": [
        0
      ],
      "type": "SCALAR"
    },
    {
      "bufferView": 2,
      "byteOffset": 672,
      "componentType": 5126,
      "count": 36,
      "max": [
        50.414215087890625,
        50.414215087890625,
        102
      ],
      "min": [
        -50.414215087890625,
        -50.414215087890625,
        101.15470123291016
      ],
      "type": "VEC3"
    },
    {
      "bufferView": 2,
      "byteOffset": 1104,
      "componentType": 5126,
      "count": 36,
      "max": [
        0,
        0,
        1
      ],
      "min": [
        0,
        0,
        1
      ],
      "type": "VEC3"
    },
    {
      "bufferView": 3,
      "byteOffset": 448,
      "componentType": 5126,
      "count": 36,
      "max": [
        1,
        4.5032055595584097e-07,
        0,
        1
      ],
      "min": [
        1,
        0,
        0,
        1
      ],
      "type": "VEC4"
    },
    {
      "bufferView": 1,
      "byteOffset": 224,
      "componentType": 5126,
      "count": 36,
      "max": [
        1,
        1
      ],
      "min": [
        0,
        0
      ],
      "type": "VEC2"
    },
    {
      "bufferView": 0,
      "byteOffset": 168,
      "componentType": 5125,
      "count": 54,
      "max": [
        35
      ],
      "min": [
        0
      ],
      "type": "SCALAR"
    },
    {
      "bufferView": 2,
      "byteOffset": 1536,
      "componentType": 5126,
      "count": 36,
      "max": [
        50.414215087890625,
        -51.154701232910156,
        100.41421508789062
      ],
      "min": [
        -50.414215087890625,
        -52,
        -0.41421353816986084
      ],
      "type": "VEC3"
    },
    {
      "bufferView": 2,
      "byteOffset": 1968,
      "componentType": 5126,
      "count": 36,
      "max": [
        0,
        -1,
        0
      ],
      "min": [
        0,
        -1,
        0
      ],
      "type": "VEC3"
    },
    {
      "bufferView": 3,
      "byteOffset": 1024,
      "componentType": 5126,
      "count": 36,
      "max": [
        1,
        0,
        5.0275690455237054e-07,
        1
      ],
      "min": [
        1,
        0,
        0,
        1
      ],
      "type": "VEC4"
    },
    {
      "bufferView": 1,
      "byteOffset": 512,
      "componentType": 5126,
      "count": 36,
      "max": [
        1,
        1
      ],
      "min": [
        0,
        0
      ],
      "type": "VEC2"
    },
    {
      "bufferView": 0,
      "byteOffset": 384,
      "componentType": 5125,
      "count": 54,
      "max": [
        35
      ],
      "min": [
        0
      ],
      "type": "SCALAR"
    },
    {
      "bufferView": 2,
      "byteOffset": 2400,
      "componentType": 5126,
      "count": 36,
      "max": [
        52,
        50.414215087890625,
        100.41421508789062
      ],
      "min": [
        51.154701232910156,
        -50.414215087890625,
        -0.41421353816986084
      ],
      "type": "VEC3"
    },
    {
      "bufferView": 2,
      "byteOffset": 2832,
      "componentType": 5126,
      "count": 36,
      "max": [
        1,
        0,
        0
      ],
      "min": [
        1,
        0,
        0
      ],
      "type": "VEC3"
    },
    {
      "bufferView": 3,
      "byteOffset": 1600,
      "componentType": 5126,
      "count": 36,
      "max": [
        0,
        1,
        5.0275690455237054e-07,
        1
      ],
      "min": [
        0,
        1,
        -4.8618278469803045e-07,
        1
      ],
      "type": "VEC4"
    },
    {
      "bufferView": 1,
      "byteOffset": 800,
      "componentType": 5126,
      "count": 36,
      "max": [
        1,
        1
      ],
      "min": [
        0,
        0
      ],
      "type": "VEC2"
    },
    {
      "bufferView": 0,
      "byteOffset": 600,
      "componentType": 5125,
      "count": 54,
      "max": [
        35
      ],
      "min": [
        0
      ],
      "type": "SCALAR"
    },
    {
      "bufferView": 2,
      "byteOffset": 3264,
      "componentType": 5126,
      "count": 36,
      "max": [
        50.414215087890625,
        52,
        100.41421508789062
      ],
      "min": [
        -50.414215087890625,
        51.154701232910156,
        -0.41421353816986084
      ],
      "type": "VEC3"
    },
    {
      "bufferView": 2,
      "byteOffset": 3696,
      "componentType": 5126,
      "count": 36,
      "max": [
        0,
        1,
        0
      ],
      "min": [
        0,
        1,
        0
      ],
      "type": "VEC3"
    },
    {
      "bufferView": 3,
      "byteOffset": 2176,
      "componentType": 5126,
      "count": 36,
      "max": [
        -1,
        0,
        5.0275690455237054e-07,
        1
      ],
      "min": [
        -1,
        0,
        -4.8618278469803045e-07,
        1
      ],
      "type": "VEC4"
    },
    {
      "bufferView": 1,
      "byteOffset": 1088,
      "componentType": 5126,
      "count": 36,
      "max": [
        1,
        1
      ],
      "min": [
        0,
        0
      ],
      "type": "VEC2"
    },
    {
      "bufferView": 0,
      "byteOffset": 816,
      "componentType": 5125,
      "count": 54,
      "max": [
        35
      ],
      "min": [
        0
      ],
      "type": "SCALAR"
    },
    {
      "bufferView": 2,
      "byteOffset": 4128,
      "componentType": 5126,
      "count": 36,
      "max": [
        -51.154701232910156,
        50.414215087890625,
        100.41421508789062
      ],
      "min": [
        -52,
        -50.414215087890625,
        -0.41421353816986084
      ],
      "type": "VEC3"
    },
    {
      "bufferView": 2,
      "byteOffset": 4560,
      "componentType": 5126,
      "count": 36,
      "max": [
        -1,
        0,
        0
      ],
      "min": [
        -1,
        0,
        0
      ],
      "type": "VEC3"
    },
    {
      "bufferView": 3,
      "byteOffset": 2752,
      "componentType": 5126,
      "count": 36,
      "max": [
        0,
        -1,
        5.0275690455237054e-07,
        1
      ],
      "min": [
        0,
        -1,
        -4.8618278469803045e-07,
        1
      ],
      "type": "VEC4"
    },
    {
      "bufferView": 1,
      "byteOffset": 1376,
      "componentType": 5126,
      "count": 36,
      "max": [
        1,
        1
      ],
      "min": [
        0,
        0
      ],
      "type": "VEC2"
    },
    {
      "bufferView": 0,
      "byteOffset": 1032,
      "componentType": 5125,
      "count": 54,
      "max": [
        35
      ],
      "min": [
        0
      ],
      "type": "SCALAR"
    },
    {
      "bufferView": 2,
      "byteOffset": 4992,
      "componentType": 5126,
      "count": 32,
      "max": [
        50.414215087890625,
        50.414215087890625,
        -1.1547003984451294
      ],
      "min": [
        -50.414215087890625,
        -50.414215087890625,
        -1.4142135381698608
      ],
      "type": "VEC3"
    },
    {
      "bufferView": 2,
      "byteOffset": 5376,
      "componentType": 5126,
      "count": 32,
      "max": [
        0,
        0,
        -1
      ],
      "min": [
        0,
        0,
        -1
      ],
      "type": "VEC3"
    },
    {
      "bufferView": 3,
      "byteOffset": 3328,
      "componentType": 5126,
      "count": 32,
      "max": [
        -1,
        4.0220550090452889e-07,
        0,
        1
      ],
      "min": [
        -1,
        0,
        0,
        1
      ],
      "type": "VEC4"
    },
    {
      "bufferView": 1,
      "byteOffset": 1664,
      "componentType": 5126,
      "count": 32,
      "max": [
        1,
        1
      ],
      "min": [
        0,
        0
      ],
      "type": "VEC2"
    },
    {
      "bufferView": 0,
      "byteOffset": 1248,
      "componentType": 5125,
      "count": 48,
      "max": [
        31
      ],
      "min": [
        0
      ],
      "type": "SCALAR"
    },
    {
      "bufferView": 2,
      "byteOffset": 5760,
      "componentType": 5126,
      "count": 1200,
      "max": [
        52,
        52,
        102
      ],
      "min": [
        -52,
        -52,
        -2
      ],
      "type": "VEC3"
    },
    {
      "bufferView": 2,
      "byteOffset": 20160,
      "componentType": 5126,
      "count": 1200,
      "max": [
        1,
        1,
        1
      ],
      "min": [
        -1,
        -1,
        -1
      ],
      "type": "VEC3"
    },
    {
      "bufferView": 3,
      "byteOffset": 3840,
      "componentType": 5126,
      "count": 1200,
      "max": [
        1,
        1,
        1.7353515602280822e-07,
        1
      ],
      "min": [
        -1,
        -1,
        -4.2053585502799251e-07,
        1
      ],
      "type": "VEC4"
    },
    {
      "bufferView": 1,
      "byteOffset": 1920,
      "componentType": 5126,
      "count": 1200,
      "max": [
        1,
        1
      ],
      "min": [
        0,
        0
      ],
      "type": "VEC2"
    },
    {
      "bufferView": 0,
      "byteOffset": 1440,
      "componentType": 5125,
      "count": 2736,
      "max": [
        1199
      ],
      "min": [
        0
      ],
      "type": "SCALAR"
    }
  ],
  "asset": {
    "extras": {
      "author": "Anthony Yanez (https://sketchfab.com/paulyanez)",
      "license": "CC-BY-4.0 (http://creativecommons.org/licenses/by/4.0/)",
      "source": "https://sketchfab.com/models/ab04f27dcdff4a6c8d3d18cc947efb5a",
      "title": "Rubik's Cube"
    },
    "generator": "Sketchfab-3.53.2",
    "version": "2.0"
  },
  "bufferViews": [
    {
      "buffer": 0,
      "byteLength": 12384,
      "byteOffset": 0,
      "name": "floatBufferViews",
      "target": 34963
    },
    {
      "buffer": 0,
      "byteLength": 11520,
      "byteOffset": 12384,
      "byteStride": 8,
      "name": "floatBufferViews",
      "target": 34962
    },
    {
      "buffer": 0,
      "byteLength": 34560,
      "byteOffset": 23904,
      "byteStride": 12,
      "name": "floatBufferViews",
      "target": 34962
    },
    {
      "buffer": 0,
      "byteLength": 23040,
      "byteOffset": 58464,
      "byteStride": 16,
      "name": "floatBufferViews",
      "target": 34962
    }
  ],
  "buffers": [
    {
      "byteLength": 81504,
      "uri": "scene.bin"
    }
  ],
  "images": [
    {
      "uri": "textures/14_-_Default_baseColor.png"
    }
  ],
  "materials": [
    {
      "doubleSided": true,
      "emissiveFactor": [
        0,
        0,
        0
      ],
      "name": "01_-_Default",
      "pbrMetallicRoughness": {
        "baseColorFactor": [
          0.019607800000000002,
          0.019607800000000002,
          0.019607800000000002,
          1
        ],
        "metallicFactor": 1,
        "roughnessFactor": 0.89297135959999996
      }
    },
    {
      "doubleSided": true,
      "emissiveFactor": [
        0,
        0,
        0
      ],
      "name": "14_-_Default",
      "pbrMetallicRoughness": {
        "baseColorFactor": [
          1,
          1,
          1,
          1
        ],
        "baseColorTexture": {
          "index": 0,
          "texCoord": 0
        },
        "metallicFactor": 1,
        "roughnessFactor": 0.5
      }
    },
    {
      "doubleSided": true,
      "emissiveFactor": [
        0,
        0,
        0
      ],
      "name": "07_-_Default",
      "pbrMetallicRoughness": {
        "baseColorFactor": [
          1,
          0.91764699999999999,
          0,
          1
        ],
        "metallicFactor": 0.41025152440000001,
        "roughnessFactor": 0.5
      }
    },
    {
      "doubleSided": true,
      "emissiveFactor": [
        0,
        0,
        0
      ],
      "name": "02_-_Default",
      "pbrMetallicRoughness": {
        "baseColorFactor": [
          1,
          0,
          0,
          1
        ],
        "metallicFactor": 1,
        "roughnessFactor": 0.5
      }
    },
    {
      "doubleSided": true,
      "emissiveFactor": [
        0,
        0,
        0
      ],
      "name": "03_-_Default",
      "pbrMetallicRoughness": {
        "baseColorFactor": [
          0.070588200000000004,
          1,
          0,
          1
        ],
        "metallicFactor": 1,
        "roughnessFactor": 0.5
      }
    },
    {
      "doubleSided": true,
      "emissiveFactor": [
        0,
        0,
        0
      ],
      "name": "08_-_Default",
      "pbrMetallicRoughness": {
        "baseColorFactor": [
          0,
          0.207843,
          0.88627500000000003,
          1
        ],
        "metallicFactor": 1,
        "roughnessFactor": 0.5
      }
    },
    {
      "doubleSided": true,
      "emissiveFactor": [
        0,
        0,
        0
      ],
      "name": "09_-_Default",
      "pbrMetallicRoughness": {
        "baseColorFactor": [
          1,
          0.47058800000000001,
          0,
          1
        ],
        "metallicFactor": 1,
        "roughnessFactor": 0.5
      }
    },
    {
      "doubleSided": true,
      "emissiveFactor": [
        0,
        0,
        0
      ],
      "name": "13_-_Default",
      "pbrMetallicRoughness": {
        "baseColorFactor": [
          1,
          1,
          1,
          1
        ],
        "metallicFactor": 1,
        "roughnessFactor": 0.5
      }
    }
  ],
  "meshes": [
    {
      "name": "Box014_01 - Default_0",
      "primitives": [
        {
          "attributes": {
            "NORMAL": 1,
            "POSITION": 0,
            "TANGENT": 2,
            "TEXCOORD_0": 3
          },
          "indices": 4,
          "material": 0,
          "mode": 4
        }
      ]
    },
    {
      "name": "Rubik's Cube_14 - Default_0",
      "primitives": [
        {
          "attributes": {
            "NORMAL": 6,
            "POSITION": 5,
            "TANGENT": 7,
            "TEXCOORD_0": 8
          },
          "indices": 9,
          "material": 1,
          "mode": 4
        }
      ]
    },
    {
      "name": "Rubik's Cube_07 - Default_0",
      "primitives": [
        {
          "attributes": {
            "NORMAL": 11,
            "POSITION": 10,
            "TANGENT": 12,
            "TEXCOORD_0": 13
          },
          "indices": 14,
          "material": 2,
          "mode": 4
        }
      ]
    },
    {
      "name": "Rubik's Cube_02 - Default_0",
      "primitives": [
        {
          "attributes": {
            "NORMAL": 16,
            "POSITION": 15,
            "TANGENT": 17,
            "TEXCOORD_0": 18
          },
          "indices": 19,
          "material": 3,
          "mode": 4
        }
      ]
    },
    {
      "name": "Rubik's Cube_03 - Default_0",
      "primitives": [
        {
          "attributes": {
            "NORMAL": 21,
            "POSITION": 20,
            "TANGENT": 22,
            "TEXCOORD_0": 23
          },
          "indices": 24,
          "material": 4,
          "mode": 4
        }
      ]
    },
    {
      "name": "Rubik's Cube_08 - Default_0",
      "primitives": [
        {
          "attributes": {
            "NORMAL": 26,
            "POSITION": 25,
            "TANGENT": 27,
            "TEXCOORD_0": 28
          },
          "indices": 29,
          "material": 5,
          "mode": 4
        }
      ]
    },
    {
      "name": "Rubik's Cube_09 - Default_0",
      "primitives": [
        {
          "attributes": {
            "NORMAL": 31,
            "POSITION": 30,
            "TANGENT": 32,
            "TEXCOORD_0": 33
          },
          "indices": 34,
          "material": 6,
          "mode": 4
        }
      ]
    },
    {
      "name": "Rubik's Cube_13 - Default_0",
      "primitives": [
        {
          "attributes": {
            "NORMAL": 36,
            "POSITION": 35,
            "TANGENT": 37,
            "TEXCOORD_0": 38
          },
          "indices": 39,
          "material": 7,
          "mode": 4
        }
      ]
    },
    {
      "name": "Rubik's Cube_01 - Default_0",
      "primitives": [
        {
          "attributes": {
            "NORMAL": 41,
            "POSITION": 40,
            "TANGENT": 42,
            "TEXCOORD_0": 43
          },
          "indices": 44,
          "material": 0,
          "mode": 4
        }
      ]
    }
  ],
  "nodes": [
    {
      "children": [
        1
      ],
      "name": "RootNode (gltf orientation matrix)",
      "rotation": [
        -0.70710678118654746,
        -0,
        -0,
        0.70710678118654757
      ]
    },
    {
      "children": [
        2
      ],
      "name": "RootNode (model correction matrix)"
    },
    {
      "children": [
        3
      ],
      "matrix": [
        1,
        0,
        0,
        0,
        0,
        0,
        1,
        0,
        0,
        -1,
        0,
        0,
        0,
        0,
        0,
        1
      ],
      "name": "Rubik's Cube.FBX"
    },
    {
      "children": [
        4,
        7
      ],
      "name": "RootNode"
    },
    {
      "children": [
        5
      ],
      "matrix": [
        1.5514750480651855,
        0,
        0,
        0,
        0,
        3.4449666409867808e-16,
        -1.5514750480651855,
        0,
        0,
        1.5514750480651855,
        3.4449666409867808e-16,
        0,
        0.02985382080078125,
        32.609642028808594,
        22.027698516845703,
        1
      ],
      "name": "Box014"
    },
    {
      "children": [
        6
      ],
      "matrix": [
        1,
        0,
        -0,
        0,
        0,
        1,
        0,
        0,
        0,
        0,
        1,
        0,
        0,
        4.4460276171776059e-07,
        -10.171324729919434,
        1
      ],
      "name": ""
    },
    {
      "mesh": 0,
      "name": "Box014_01 - Default_0"
    },
    {
      "children": [
        8,
        9,
        10,
        11,
        12,
        13,
        14,
        15
      ],
      "matrix": [
        1,
        0,
        0,
        0,
        0,
        0.999999999999999,
        4.3711388286737922e-08,
        0,
        0,
        -4.3711388286737922e-08,
        0.999999999999999,
        0,
        4.1052780151367188,
        50,
        -48.506866455078125,
        1
      ],
      "name": "Rubik's Cube"
    },
    {
      "mesh": 1,
      "name": "Rubik's Cube_14 - Default_0"
    },
    {
      "mesh": 2,
      "name": "Rubik's Cube_07 - Default_0"
    },
    {
      "mesh": 3,
      "name": "Rubik's Cube_02 - Default_0"
    },
    {
      "mesh": 4,
      "name": "Rubik's Cube_03 - Default_0"
    },
    {
      "mesh": 5,
      "name": "Rubik's Cube_08 - Default_0"
    },
    {
      "mesh": 6,
      "name": "Rubik's Cube_09 - Default_0"
    },
    {
      "mesh": 7,
      "name": "Rubik's Cube_13 - Default_0"
    },
    {
      "mesh": 8,
      "name": "Rubik's Cube_01 - Default_0"
    }
  ],
  "samplers": [
    {
      "magFilter": 9729,
      "minFilter": 9987,
      "wrapS": 10497,
      "wrapT": 10497
    }
  ],
  "scene": 0,
  "scenes": [
    {
      "name": "OSG_Scene",
      "nodes": [
        0
      ]
    }
  ],
  "textures": [
    {
      "sampler": 0,
      "source": 0
    }
  ]
}

